<svg width="750" height="500" viewBox="0 0 750 500" fill="none" xmlns="http://www.w3.org/2000/svg">
<path d="M48.1011 387.283H113.467C113.467 387.283 111.09 360.268 80.784 360.268C50.4778 360.268 48.1011 387.283 48.1011 387.283Z" fill="#8416A9" fill-opacity="0.39"/>
<path d="M84.2759 357.234C96.0829 355.553 104.093 345.831 102.167 335.521C100.241 325.21 89.1084 318.216 77.3013 319.897C65.4943 321.579 57.4841 331.301 59.4101 341.611C61.336 351.921 72.4688 358.916 84.2759 357.234Z" fill="#8416A9" fill-opacity="0.39"/>
<path d="M530.787 81.5095H587.906C587.906 81.5095 585.829 57.9028 559.346 57.9028C532.864 57.9028 530.787 81.5095 530.787 81.5095Z" fill="#8416A9" fill-opacity="0.39"/>
<path d="M559.347 55.4495C569.8 55.4495 578.274 48.0497 578.274 38.9216C578.274 29.7935 569.8 22.3937 559.347 22.3937C548.894 22.3937 540.42 29.7935 540.42 38.9216C540.42 48.0497 548.894 55.4495 559.347 55.4495Z" fill="#8416A9" fill-opacity="0.39"/>
<path d="M6.56494 346.213H53.6553C53.6553 346.213 51.9425 326.751 30.1108 326.751C8.2778 326.751 6.56494 346.213 6.56494 346.213Z" fill="#8416A9" fill-opacity="0.39"/>
<path d="M30.1108 324.73C38.7289 324.73 45.7153 318.63 45.7153 311.104C45.7153 303.578 38.7289 297.478 30.1108 297.478C21.4927 297.478 14.5064 303.578 14.5064 311.104C14.5064 318.63 21.4927 324.73 30.1108 324.73Z" fill="#8416A9" fill-opacity="0.39"/>
<path d="M487.819 51.9522H534.909C534.909 51.9522 533.196 32.4905 511.365 32.4905C489.532 32.4893 487.819 51.9522 487.819 51.9522Z" fill="#8416A9" fill-opacity="0.39"/>
<path d="M515.674 29.9479C523.961 27.8814 528.76 20.3397 526.394 13.103C524.027 5.86639 515.391 1.67519 507.104 3.74172C498.817 5.80826 494.017 13.35 496.383 20.5866C498.75 27.8232 507.387 32.0144 515.674 29.9479Z" fill="#8416A9" fill-opacity="0.39"/>
<path d="M650.959 269.929H700.877C700.877 269.929 699.061 249.298 675.918 249.298C652.773 249.298 650.959 269.929 650.959 269.929Z" fill="#8416A9" fill-opacity="0.39"/>
<path d="M679.376 246.86C688.309 245.192 694.003 237.516 692.093 229.714C690.182 221.913 681.392 216.941 672.458 218.61C663.524 220.278 657.831 227.954 659.741 235.755C661.651 243.556 670.442 248.528 679.376 246.86Z" fill="#8416A9" fill-opacity="0.39"/>
<path d="M557.014 391.506C494.452 448.599 401.761 475.839 312.27 466.591C231.468 458.24 130.634 415.832 111.614 339.893C96.9835 281.475 142.57 232.162 205.11 216.118C269.531 199.592 286.6 167.327 318.057 133.944C395.934 51.2978 544.003 55.3159 611.742 144.512C662.209 210.967 651.902 304.911 557.014 391.506Z" fill="#8416A9" fill-opacity="0.39"/>
<mask id="mask0_31_15" style="mask-type:luminance" maskUnits="userSpaceOnUse" x="121" y="97" width="499" height="374">
<path d="M531.697 423.094C474.97 466.48 397.999 480.295 328.073 462.351C264.935 446.149 127.786 353.695 122.053 284.785C117.643 231.776 222.236 237.464 273.881 230.197C327.079 222.713 337.229 149.311 366.328 123.38C438.372 59.1867 562.851 125.826 605.637 211.741C637.515 275.749 617.737 357.289 531.697 423.094Z" fill="white"/>
</mask>
<g mask="url(#mask0_31_15)">
<path d="M459.297 110.153C459.297 110.153 431.296 103.115 406.61 130.934C381.925 158.754 415.491 172.912 365.73 227.439C335.905 264.605 374.654 296.414 401.018 299.522C427.383 302.631 482.526 311.134 519.579 269.225C556.634 227.316 530.297 122.596 459.297 110.153Z" fill="black"/>
<path d="M241.869 280.9C216.39 263.384 184.69 260.929 182.263 264.174C179.836 267.419 203.352 277.797 203.352 277.797C203.352 277.797 166.828 265.927 162.144 270.472C157.459 275.017 178.103 302.789 235.902 301.112L241.869 280.9Z" fill="#CA7168"/>
<path d="M239.297 275.831L332.985 339.041C332.985 339.041 396.93 287.972 427.961 267.207C458.991 246.443 496.398 274.77 442.697 329.662C388.996 384.554 343.714 405.086 325.037 395.574C306.361 386.062 216.192 308.12 216.192 308.12L239.297 275.831Z" fill="white"/>
<mask id="mask1_31_15" style="mask-type:luminance" maskUnits="userSpaceOnUse" x="216" y="260" width="254" height="138">
<path d="M239.297 275.831L332.985 339.041C332.985 339.041 396.93 287.972 427.961 267.207C458.991 246.443 496.398 274.77 442.697 329.662C388.996 384.554 343.714 405.086 325.037 395.574C306.361 386.062 216.192 308.12 216.192 308.12L239.297 275.831Z" fill="white"/>
</mask>
<g mask="url(#mask1_31_15)">
<path d="M405.484 287.028C405.484 287.028 337.297 323.001 353.454 411.839C372.334 405.094 372.334 405.094 372.334 405.094L405.484 287.028Z" fill="black"/>
</g>
<path d="M499.958 470.875C499.958 470.875 565.853 258.914 454.139 261.297C454.139 261.297 450.03 261.941 443.509 263.906C395.403 278.405 363.065 321.742 362.304 370.621C361.958 392.778 363.319 427.446 369.482 480.047C458.722 510.568 499.958 470.875 499.958 470.875Z" fill="#F07AEE"/>
<mask id="mask2_31_15" style="mask-type:luminance" maskUnits="userSpaceOnUse" x="362" y="261" width="158" height="231">
<path d="M499.958 470.875C499.958 470.875 565.853 258.914 454.139 261.297C454.139 261.297 450.03 261.941 443.509 263.906C395.403 278.405 363.065 321.742 362.304 370.621C361.958 392.778 363.319 427.446 369.482 480.047C458.722 510.568 499.958 470.875 499.958 470.875Z" fill="white"/>
</mask>
<g mask="url(#mask2_31_15)">
<path d="M438.53 271.143C438.53 271.143 389.022 336.744 407.638 497.675" stroke="black" stroke-width="1.5" stroke-miterlimit="10" stroke-linecap="round" stroke-linejoin="round"/>
</g>
<mask id="mask3_31_15" style="mask-type:luminance" maskUnits="userSpaceOnUse" x="356" y="262" width="165" height="229">
<path d="M487.068 475.416C487.068 475.416 575.158 271.287 463.705 262.532C463.705 262.532 459.546 262.764 452.847 264.067C403.424 273.689 366.635 313.547 360.689 362.057C357.993 384.046 355.668 418.642 356.22 471.541C441.809 510.765 487.068 475.416 487.068 475.416Z" fill="white"/>
</mask>
<g mask="url(#mask3_31_15)">
<path d="M468.463 349.838L429.312 340.388L425.963 353.745L465.114 363.195L468.463 349.838Z" stroke="black" stroke-width="1.5" stroke-miterlimit="10" stroke-linecap="round" stroke-linejoin="round"/>
</g>
<mask id="mask4_31_15" style="mask-type:luminance" maskUnits="userSpaceOnUse" x="362" y="261" width="158" height="231">
<path d="M499.958 470.875C499.958 470.875 565.853 258.914 454.139 261.297C454.139 261.297 450.03 261.941 443.509 263.906C395.403 278.405 363.065 321.742 362.304 370.621C361.958 392.778 363.319 427.446 369.482 480.047C458.722 510.568 499.958 470.875 499.958 470.875Z" fill="white"/>
</mask>
<g mask="url(#mask4_31_15)">
<path d="M479.171 330.911C479.267 331.378 482.882 408.076 531.986 442.583C551.809 417.269 549.29 413.476 549.29 413.476L479.171 330.911Z" fill="black"/>
</g>
<path d="M484.291 262.892C484.291 262.892 452.447 280.31 429.18 290.296C427.171 277.313 416.281 210.038 416.281 210.038L473.992 210.843L484.291 262.892Z" fill="#CA7168"/>
<mask id="mask5_31_15" style="mask-type:luminance" maskUnits="userSpaceOnUse" x="416" y="210" width="69" height="81">
<path d="M484.291 262.892C484.291 262.892 452.447 280.31 429.18 290.296C427.171 277.313 416.281 210.038 416.281 210.038L473.992 210.843L484.291 262.892Z" fill="white"/>
</mask>
<g mask="url(#mask5_31_15)">
<path d="M439.275 124.006C439.275 124.006 385.503 120.816 376.018 175.57C366.533 230.324 379.722 256.083 412.705 256.581C446.923 257.098 473.595 232.958 487.662 201.522C501.763 170.007 478.383 130.65 439.275 124.006Z" fill="black"/>
</g>
<path d="M432.436 116.462C421.228 120.7 409.375 129.065 402.657 145.415C372.632 233.676 400.64 244.464 433.622 244.962C467.839 245.479 494.512 221.338 508.578 189.902C518.39 167.974 510.056 142.251 490.904 126.391C474.752 113.014 452.12 109.018 432.436 116.462Z" fill="#CA7168"/>
<mask id="mask6_31_15" style="mask-type:luminance" maskUnits="userSpaceOnUse" x="379" y="88" width="117" height="141">
<path d="M395.742 104.238C387.115 112.343 379.536 124.507 379.858 142.144C387.341 235.027 417.405 234.557 447.953 222.709C479.646 210.418 494.586 178.124 495.024 143.784C495.329 119.83 477.427 99.1357 453.494 91.6063C433.31 85.2552 410.894 90.0033 395.742 104.238Z" fill="white"/>
</mask>
<g mask="url(#mask6_31_15)">
<path d="M387.553 214.557C396.503 212.303 401.824 203.436 399.436 194.752C397.049 186.068 387.858 180.854 378.907 183.108C369.957 185.361 364.636 194.229 367.024 202.913C369.411 211.597 378.602 216.811 387.553 214.557Z" fill="#C45853"/>
</g>
<mask id="mask7_31_15" style="mask-type:luminance" maskUnits="userSpaceOnUse" x="386" y="112" width="116" height="138">
<path d="M408.364 122.935C398.641 129.781 389.37 140.785 387.138 158.276C381.116 251.171 410.98 254.787 442.971 247.213C476.159 239.356 495.639 209.438 501.041 175.528C504.809 151.874 490.06 128.973 467.429 118.277C448.344 109.255 425.441 110.91 408.364 122.935Z" fill="white"/>
</mask>
<g mask="url(#mask7_31_15)">
<path d="M449.104 226.999C458.3 225.984 464.856 217.935 463.747 209.02C462.637 200.105 454.282 193.701 445.085 194.716C435.888 195.73 429.332 203.779 430.442 212.694C431.552 221.609 439.907 228.013 449.104 226.999Z" fill="#C45853"/>
</g>
<mask id="mask8_31_15" style="mask-type:luminance" maskUnits="userSpaceOnUse" x="389" y="112" width="124" height="133">
<path d="M432.436 116.462C421.228 120.7 409.375 129.065 402.657 145.415C372.632 233.676 400.64 244.464 433.622 244.962C467.839 245.479 494.512 221.338 508.578 189.902C518.39 167.974 510.056 142.251 490.904 126.391C474.752 113.014 452.12 109.018 432.436 116.462Z" fill="white"/>
</mask>
<g mask="url(#mask8_31_15)">
<path d="M477.833 202.704C477.833 202.704 472.273 200.726 468.147 208.439C471.861 209.137 472.511 212.394 471.331 214.131" stroke="black" stroke-width="1.5" stroke-miterlimit="10" stroke-linecap="round" stroke-linejoin="round"/>
</g>
<mask id="mask9_31_15" style="mask-type:luminance" maskUnits="userSpaceOnUse" x="389" y="112" width="124" height="133">
<path d="M432.436 116.462C421.228 120.7 409.375 129.065 402.657 145.415C372.632 233.676 400.64 244.464 433.622 244.962C467.839 245.479 494.512 221.338 508.578 189.902C518.39 167.974 510.056 142.251 490.904 126.391C474.752 113.014 452.12 109.018 432.436 116.462Z" fill="white"/>
</mask>
<g mask="url(#mask9_31_15)">
<path d="M397.932 181.339C397.932 181.339 403.779 177.606 407.818 183.199" stroke="black" stroke-width="1.5" stroke-miterlimit="10" stroke-linecap="round" stroke-linejoin="round"/>
<path d="M404.828 187.391C405.431 184.285 404.455 182.51 402.885 182.215C401.314 181.919 399.744 183.215 399.143 186.321C398.541 189.427 399.516 191.202 401.086 191.497C402.657 191.792 404.227 190.497 404.828 187.391Z" fill="black"/>
<path d="M430.072 187.386C430.072 187.386 435.919 183.653 439.957 189.246" stroke="black" stroke-width="1.5" stroke-miterlimit="10" stroke-linecap="round" stroke-linejoin="round"/>
<path d="M436.969 193.438C437.571 190.332 436.596 188.557 435.026 188.262C433.455 187.966 431.885 189.262 431.284 192.368C430.681 195.474 431.657 197.249 433.227 197.544C434.797 197.839 436.367 196.543 436.969 193.438Z" fill="black"/>
</g>
<mask id="mask10_31_15" style="mask-type:luminance" maskUnits="userSpaceOnUse" x="389" y="112" width="124" height="133">
<path d="M432.436 116.462C421.228 120.7 409.375 129.065 402.657 145.415C372.632 233.676 400.64 244.464 433.622 244.962C467.839 245.479 494.512 221.338 508.578 189.902C518.39 167.974 510.056 142.251 490.904 126.391C474.752 113.014 452.12 109.018 432.436 116.462Z" fill="white"/>
</mask>
<g mask="url(#mask10_31_15)">
<path d="M408.532 212.155C408.532 212.155 415.528 216.429 424.339 211.332" stroke="black" stroke-width="1.5" stroke-miterlimit="10" stroke-linecap="round" stroke-linejoin="round"/>
</g>
<mask id="mask11_31_15" style="mask-type:luminance" maskUnits="userSpaceOnUse" x="389" y="112" width="124" height="133">
<path d="M432.436 116.462C421.228 120.7 409.375 129.065 402.657 145.415C372.632 233.676 400.64 244.464 433.622 244.962C467.839 245.479 494.512 221.338 508.578 189.902C518.39 167.974 510.056 142.251 490.904 126.391C474.752 113.014 452.12 109.018 432.436 116.462Z" fill="white"/>
</mask>
<g mask="url(#mask11_31_15)">
<path d="M416.322 188.535C416.322 188.535 414.255 194.562 410.405 196.796C406.555 199.029 407.954 202.946 411.283 203.398" stroke="black" stroke-width="1.5" stroke-miterlimit="10" stroke-linecap="round" stroke-linejoin="round"/>
</g>
<mask id="mask12_31_15" style="mask-type:luminance" maskUnits="userSpaceOnUse" x="389" y="112" width="124" height="133">
<path d="M432.436 116.462C421.228 120.7 409.375 129.065 402.657 145.415C372.632 233.676 400.64 244.464 433.622 244.962C467.839 245.479 494.512 221.338 508.578 189.902C518.39 167.974 510.056 142.251 490.904 126.391C474.752 113.014 452.12 109.018 432.436 116.462Z" fill="white"/>
</mask>
<g mask="url(#mask12_31_15)">
<path d="M409.548 174.271C409.861 172.654 407.903 170.925 405.173 170.412C402.443 169.899 399.976 170.793 399.663 172.412C399.349 174.03 400.43 174.17 403.159 174.684C405.889 175.197 409.233 175.89 409.548 174.271Z" fill="black"/>
</g>
<mask id="mask13_31_15" style="mask-type:luminance" maskUnits="userSpaceOnUse" x="389" y="112" width="124" height="133">
<path d="M432.436 116.462C421.228 120.7 409.375 129.065 402.657 145.415C372.632 233.676 400.64 244.464 433.622 244.962C467.839 245.479 494.512 221.338 508.578 189.902C518.39 167.974 510.056 142.251 490.904 126.391C474.752 113.014 452.12 109.018 432.436 116.462Z" fill="white"/>
</mask>
<g mask="url(#mask13_31_15)">
<path d="M441.688 180.318C442.001 178.701 440.043 176.972 437.313 176.459C434.583 175.945 432.116 176.841 431.803 178.459C431.489 180.077 432.57 180.217 435.3 180.731C438.029 181.243 441.375 181.936 441.688 180.318Z" fill="black"/>
</g>
<path d="M429.18 290.297L481.192 247.233L493.96 265.911L460.955 294.681L442.883 289.254L429.18 290.297Z" fill="white"/>
<mask id="mask14_31_15" style="mask-type:luminance" maskUnits="userSpaceOnUse" x="429" y="247" width="65" height="48">
<path d="M429.18 290.297L481.192 247.233L493.96 265.911L460.955 294.681L442.883 289.254L429.18 290.297Z" fill="white"/>
</mask>
<g mask="url(#mask14_31_15)">
<path d="M456.48 288.016L442.883 289.254L460.955 294.681L456.48 288.016Z" fill="black"/>
</g>
<path d="M429.18 290.297L423.09 252.206L411.289 264.783L429.18 290.297Z" fill="white"/>
<path d="M346.564 372.544C346.564 372.544 345.62 349.572 333.635 343.585C337.853 357.147 331.266 366.649 331.266 366.649" stroke="black" stroke-width="1.5" stroke-miterlimit="10" stroke-linecap="round" stroke-linejoin="round"/>
<path d="M654.319 493.334C654.319 493.334 610.946 452.817 579.012 395.386C547.079 337.957 517.515 277.809 499.035 281.696C480.556 285.583 458.587 315.512 505.786 390.812C552.986 466.112 631.729 516.231 631.729 516.231L654.319 493.334Z" fill="white"/>
<path d="M390.546 165.763C390.546 165.763 415.672 170.985 444.206 154.124C452.909 148.981 464.139 154.945 464.268 164.849C464.602 190.648 464.85 197.185 464.85 197.185C464.85 197.185 470.947 187.971 482.515 192.743C494.084 197.514 484.766 216.142 476.132 221.665C471.752 243.654 486.181 265.573 511.734 258.87C542.433 180.369 520.64 133.238 471.453 113.319C422.267 93.3981 386.203 136.055 390.546 165.763Z" fill="black"/>
<path d="M416.328 117.041C416.328 117.041 448.03 108.596 471.192 134.549C494.353 160.503 482.517 192.742 482.517 192.742L487.435 197.905C487.435 197.905 505.012 162.503 479.068 132.99C453.124 103.478 419.969 111.816 416.328 117.041Z" fill="#F07AEE"/>
<path d="M474.587 228.065C487.116 229.794 498.65 221.368 500.35 209.244C502.05 197.121 493.272 185.892 480.743 184.164C468.215 182.435 456.68 190.862 454.98 202.985C453.28 215.108 462.059 226.337 474.587 228.065Z" fill="#F07AEE"/>
<path d="M466.289 215.011L412.937 225.552C411.748 225.787 410.981 226.922 411.232 228.074C411.482 229.227 412.659 229.978 413.848 229.743L467.2 219.202C468.389 218.967 469.155 217.832 468.905 216.679C468.655 215.528 467.477 214.777 466.289 215.011Z" fill="#F07AEE"/>
<path d="M417.513 232.457L412.719 232.517C409.789 232.553 407.346 230.263 407.288 227.424C407.231 224.586 409.58 222.235 412.51 222.198L417.304 222.138C420.233 222.102 422.677 224.393 422.735 227.231C422.793 230.069 420.443 232.42 417.513 232.457Z" fill="#F07AEE"/>
<path d="M479.271 222.416C488.565 221.616 495.378 213.665 494.489 204.658C493.6 195.651 485.345 188.998 476.051 189.798C466.758 190.598 459.944 198.549 460.833 207.556C461.722 216.563 469.977 223.216 479.271 222.416Z" stroke="black" stroke-width="1.5" stroke-miterlimit="10" stroke-linecap="round" stroke-linejoin="round"/>
<path d="M405.733 330.251C406 328.351 404.624 326.591 402.66 326.32C400.696 326.049 398.888 327.37 398.622 329.27C398.355 331.17 399.731 332.93 401.695 333.201C403.659 333.472 405.467 332.151 405.733 330.251Z" fill="black"/>
<path d="M395.589 402.591C395.855 400.691 394.479 398.931 392.515 398.66C390.552 398.389 388.744 399.71 388.477 401.61C388.211 403.511 389.587 405.271 391.551 405.542C393.514 405.812 395.322 404.492 395.589 402.591Z" fill="black"/>
<path d="M419.938 295.341C420.205 293.44 418.829 291.68 416.865 291.409C414.901 291.138 413.093 292.459 412.827 294.359C412.56 296.26 413.936 298.02 415.9 298.291C417.864 298.562 419.672 297.241 419.938 295.341Z" fill="black"/>
<path d="M400.661 366.421C400.927 364.52 399.552 362.76 397.588 362.489C395.624 362.218 393.816 363.539 393.55 365.439C393.283 367.34 394.659 369.1 396.623 369.371C398.587 369.642 400.394 368.321 400.661 366.421Z" fill="black"/>
<path d="M396.094 439.531C396.36 437.63 394.984 435.87 393.021 435.599C391.057 435.329 389.249 436.649 388.982 438.55C388.716 440.45 390.092 442.21 392.056 442.481C394.019 442.752 395.827 441.431 396.094 439.531Z" fill="black"/>
<path d="M250.943 283.688L227.257 317.617" stroke="black" stroke-width="1.5" stroke-miterlimit="10" stroke-linecap="round" stroke-linejoin="round"/>
</g>
<path d="M556.008 236.394L583.894 72.6483C584.371 69.847 587.358 67.9145 590.566 68.3305L688.326 81.0258C691.534 81.4418 693.747 84.0506 693.271 86.852L665.383 250.597C664.905 253.399 661.919 255.331 658.711 254.915L560.952 242.22C557.745 241.803 555.531 239.194 556.008 236.394Z" fill="black"/>
<path d="M659.32 247.826L686.55 87.937L589.965 75.3936L562.734 235.282L659.32 247.826Z" fill="#F4D3FB"/>
<path d="M599.571 96.0302L670.48 105.238" stroke="#272726" stroke-width="1.5" stroke-miterlimit="10" stroke-linecap="round" stroke-linejoin="round"/>
<path d="M597.386 108.857L668.296 118.065" stroke="#272726" stroke-width="1.5" stroke-miterlimit="10" stroke-linecap="round" stroke-linejoin="round"/>
<path d="M595.202 121.683L666.11 130.893" stroke="#272726" stroke-width="1.5" stroke-miterlimit="10" stroke-linecap="round" stroke-linejoin="round"/>
<path d="M590.833 147.338L661.741 156.546" stroke="#272726" stroke-width="1.5" stroke-miterlimit="10" stroke-linecap="round" stroke-linejoin="round"/>
<path d="M593.018 134.511L663.926 143.72" stroke="#272726" stroke-width="1.5" stroke-miterlimit="10" stroke-linecap="round" stroke-linejoin="round"/>
<path d="M588.649 160.164L659.557 169.373" stroke="#272726" stroke-width="1.5" stroke-miterlimit="10" stroke-linecap="round" stroke-linejoin="round"/>
<path d="M586.465 172.991L657.373 182.199" stroke="#272726" stroke-width="1.5" stroke-miterlimit="10" stroke-linecap="round" stroke-linejoin="round"/>
<path d="M584.28 185.818L655.188 195.026" stroke="#272726" stroke-width="1.5" stroke-miterlimit="10" stroke-linecap="round" stroke-linejoin="round"/>
<path d="M640.883 211.602L592.442 205.312C586.238 204.506 580.461 208.244 579.537 213.663C578.615 219.08 582.895 224.125 589.1 224.93L637.542 231.221C643.745 232.026 649.523 228.288 650.447 222.87C651.369 217.453 647.088 212.408 640.883 211.602Z" fill="white"/>
<path d="M54.0499 169.357L39.2438 209.759L90.1387 176.629L54.0499 169.357Z" fill="#8416A9" fill-opacity="0.1"/>
<path d="M191.358 183.901H78.6765C56.9887 183.901 39.2438 168.406 39.2438 149.467V116.522C39.2438 97.5836 56.9887 82.0881 78.6765 82.0881H191.358C213.046 82.0881 230.791 97.5836 230.791 116.522V149.467C230.79 168.406 213.046 183.901 191.358 183.901Z" fill="#8416A9" fill-opacity="0.1"/>
<mask id="mask15_31_15" style="mask-type:luminance" maskUnits="userSpaceOnUse" x="39" y="82" width="192" height="102">
<path d="M191.358 183.901H78.6765C56.9887 183.901 39.2438 168.406 39.2438 149.467V116.522C39.2438 97.5836 56.9887 82.0881 78.6765 82.0881H191.358C213.046 82.0881 230.791 97.5836 230.791 116.522V149.467C230.79 168.406 213.046 183.901 191.358 183.901Z" fill="white"/>
</mask>
<g mask="url(#mask15_31_15)">
<path d="M248.03 132.995H135.349C113.661 132.995 95.916 117.499 95.916 98.5608V65.6155C95.916 46.6769 113.661 31.1815 135.349 31.1815H248.03C269.718 31.1815 287.463 46.6769 287.463 65.6155V98.5608C287.462 117.499 269.718 132.995 248.03 132.995Z" fill="black"/>
</g>
<path d="M70.8327 118.584H196.505" stroke="black" stroke-width="1.5" stroke-miterlimit="10" stroke-linecap="round" stroke-linejoin="round"/>
<path d="M70.8327 147.406H196.505" stroke="black" stroke-width="1.5" stroke-miterlimit="10" stroke-linecap="round" stroke-linejoin="round"/>
<path d="M299.293 108.919L316.245 155.181L257.971 117.247L299.293 108.919Z" fill="#E797B3"/>
<path d="M270.577 125.574H141.556C116.724 125.574 96.4055 107.831 96.4055 86.1465V48.4226C96.4055 26.738 116.724 8.99548 141.556 8.99548H270.577C295.41 8.99548 315.728 26.738 315.728 48.4226V86.1465C315.728 107.831 295.41 125.574 270.577 125.574Z" fill="#E797B3"/>
<path d="M135.017 50.7838H278.915" stroke="black" stroke-width="1.5" stroke-miterlimit="10" stroke-linecap="round" stroke-linejoin="round"/>
<path d="M135.017 83.7854H278.915" stroke="black" stroke-width="1.5" stroke-miterlimit="10" stroke-linecap="round" stroke-linejoin="round"/>
<path d="M227.368 361.07L73.1057 399.796L104.066 493.838L258.328 455.112L227.368 361.07Z" fill="#E797B3"/>
<mask id="mask16_31_15" style="mask-type:luminance" maskUnits="userSpaceOnUse" x="73" y="361" width="186" height="133">
<path d="M227.368 361.07L73.1057 399.796L104.066 493.838L258.328 455.112L227.368 361.07Z" fill="white"/>
</mask>
<g mask="url(#mask16_31_15)">
<path d="M168.736 394.911L147.679 480.307L287.761 506.647L308.818 421.251L168.736 394.911Z" fill="black"/>
</g>
<path d="M75.5319 407.099L168.141 434.752L229.788 368.367" stroke="black" stroke-width="1.5" stroke-miterlimit="10" stroke-linecap="round" stroke-linejoin="round"/>
<path d="M153.715 430.444L101.672 486.487" stroke="black" stroke-width="1.5" stroke-miterlimit="10" stroke-linecap="round" stroke-linejoin="round"/>
<path d="M255.928 447.755L177.745 424.411" stroke="black" stroke-width="1.5" stroke-miterlimit="10" stroke-linecap="round" stroke-linejoin="round"/>
<path d="M172.831 395.667L153.931 472.316L279.665 495.958L298.565 419.308L172.831 395.667Z" fill="white"/>
<path d="M171.364 401.656L224.778 451.802L297.095 425.3" stroke="black" stroke-width="1.5" stroke-miterlimit="10" stroke-linecap="round" stroke-linejoin="round"/>
<path d="M216.456 443.99L155.404 466.363" stroke="black" stroke-width="1.5" stroke-miterlimit="10" stroke-linecap="round" stroke-linejoin="round"/>
<path d="M281.136 490.008L236.043 447.674" stroke="black" stroke-width="1.5" stroke-miterlimit="10" stroke-linecap="round" stroke-linejoin="round"/>
<path d="M729.58 337.477C740.858 322.725 736.305 302.782 719.411 292.934C702.517 283.087 679.68 287.062 668.402 301.815C657.125 316.567 661.678 336.509 678.572 346.357C695.465 356.205 718.303 352.229 729.58 337.477Z" fill="white"/>
<path d="M705.423 297.838L708.932 312.466L724.721 318.234L709.874 325.669L708.471 340.564L695.786 330.531L679.128 333.968L686.137 320.333L677.245 307.562L694.262 309.168L705.423 297.838Z" fill="#7A94F0"/>
<path d="M52.1452 286.604C71.9539 282.679 84.368 265.474 79.8728 248.176C75.3777 230.879 55.6755 220.038 35.8668 223.963C16.0581 227.889 3.64404 245.093 8.13918 262.391C12.6343 279.689 32.3365 290.529 52.1452 286.604Z" fill="white"/>
<path d="M53.1909 239.338C41.4555 237.729 41.0491 248.425 41.0491 248.425C41.0491 248.425 32.6986 240.594 25.0593 248.538C17.882 256.002 26.7036 268.507 50.9092 271.419C66.9716 255.339 64.2176 240.848 53.1909 239.338Z" fill="#E797B3"/>
</svg>
